<svg xmlns="http://www.w3.org/2000/svg" width="44" height="44" viewBox="0 0 44 44">
  <path id="Icon_awesome-info-circle" data-name="Icon awesome-info-circle" d="M22.563.563a22,22,0,1,0,22,22A22,22,0,0,0,22.563.563Zm0,9.758a3.726,3.726,0,1,1-3.726,3.726A3.726,3.726,0,0,1,22.563,10.321ZM27.53,32.853a1.065,1.065,0,0,1-1.065,1.065H18.659a1.065,1.065,0,0,1-1.065-1.065V30.724a1.065,1.065,0,0,1,1.065-1.065h1.065V23.982H18.659a1.065,1.065,0,0,1-1.065-1.065V20.788a1.065,1.065,0,0,1,1.065-1.065h5.677A1.065,1.065,0,0,1,25.4,20.788v8.871h1.065a1.065,1.065,0,0,1,1.065,1.065Z" transform="translate(-0.563 -0.563)" fill="#fff"/>
</svg>
