<svg xmlns="http://www.w3.org/2000/svg" width="43.585" height="42.356" viewBox="0 0 43.585 42.356">
  <path id="Icon_ionic-ios-close-circle" data-name="Icon ionic-ios-close-circle" d="M25.167,3.375c-12.038,0-21.792,9.479-21.792,21.178s9.754,21.178,21.792,21.178S46.96,36.252,46.96,24.553,37.206,3.375,25.167,3.375ZM30.689,32.22l-5.521-5.366L19.646,32.22a1.717,1.717,0,0,1-2.368,0,1.59,1.59,0,0,1,0-2.3L22.8,24.553l-5.521-5.366a1.59,1.59,0,0,1,0-2.3,1.717,1.717,0,0,1,2.368,0l5.521,5.366,5.521-5.366a1.717,1.717,0,0,1,2.368,0,1.6,1.6,0,0,1,0,2.3l-5.521,5.366,5.521,5.366a1.6,1.6,0,0,1,0,2.3A1.7,1.7,0,0,1,30.689,32.22Z" transform="translate(-3.375 -3.375)" fill="#fff"/>
</svg>